<?xml version="1.0" encoding="utf-8"?>
<!-- Generator: Adobe Illustrator 21.1.0, SVG Export Plug-In . SVG Version: 6.00 Build 0)  -->
<svg version="1.1" id="Layer_1" xmlns="http://www.w3.org/2000/svg" xmlns:xlink="http://www.w3.org/1999/xlink" x="0px" y="0px"
	 viewBox="0 0 942 208" style="enable-background:new 0 0 942 208;" xml:space="preserve">
<style type="text/css">
	.st0{fill:#2079E2;}
</style>
<g>
	<path class="st0" d="M11.9,125.2c0.3,5.4,1.5,10.1,3.6,14.2c2.1,4.1,4.8,7.6,8.1,10.5c3.3,2.9,7.3,5.1,11.7,6.6
		c4.5,1.5,9.3,2.2,14.5,2.2c3.7,0,7.7-0.3,11.9-1s8.2-1.9,11.8-3.7c3.6-1.8,6.7-4.3,9-7.5c2.4-3.2,3.6-7.3,3.6-12.2
		c0-6.4-1.9-11.2-5.8-14.5c-3.9-3.3-8.7-5.8-14.6-7.6c-5.9-1.8-12.2-3.2-19-4.4c-6.8-1.1-13.1-2.8-19-5c-5.9-2.2-10.8-5.4-14.6-9.5
		c-3.9-4.1-5.8-10.1-5.8-18c0-5.7,1.3-10.4,3.8-14.2c2.5-3.8,5.8-6.8,9.7-9c3.9-2.2,8.4-3.8,13.3-4.8c4.9-1,9.8-1.5,14.7-1.5
		c6,0,11.5,0.7,16.7,2c5.2,1.3,9.7,3.5,13.5,6.5c3.8,3,6.8,6.8,8.9,11.4c2.2,4.6,3.2,10.2,3.2,16.7h-8.5c0-5.2-0.9-9.7-2.6-13.4
		c-1.7-3.7-4.1-6.7-7.1-9c-3.1-2.3-6.7-4-10.8-5.1c-4.2-1.1-8.6-1.7-13.4-1.7c-3.9,0-7.8,0.4-11.7,1.1c-3.9,0.7-7.5,2-10.6,3.8
		c-3.1,1.8-5.7,4.1-7.7,6.9c-2,2.8-3,6.2-3,10.3c0,4.6,1.1,8.3,3.3,11.2c2.2,2.8,5.2,5.1,8.8,6.8c3.6,1.7,7.7,3.1,12.3,4.1
		c4.5,1,9.1,2.1,13.7,3.1c5.7,1,11,2.3,16,3.7c5,1.4,9.3,3.3,12.9,5.8c3.6,2.5,6.5,5.6,8.6,9.5c2.1,3.9,3.1,8.8,3.1,14.7
		c0,6.3-1.4,11.4-4.2,15.4c-2.8,4-6.4,7.3-10.7,9.7c-4.3,2.5-9.1,4.2-14.4,5.1c-5.3,1-10.5,1.5-15.5,1.5c-6.6,0-12.6-0.9-18.2-2.6
		c-5.6-1.7-10.5-4.3-14.6-7.8c-4.2-3.5-7.4-7.8-9.8-12.8c-2.4-5.1-3.6-10.9-3.8-17.6H11.9z"/>
	<path class="st0" d="M192.1,84.2c-0.4-5.1-1.8-9.5-3.9-13.4c-2.2-3.9-4.9-7.1-8.4-9.6c-3.4-2.5-7.4-4.5-11.9-5.8
		c-4.5-1.3-9.4-2-14.6-2c-7.1,0-13.5,1.5-19,4.4c-5.5,2.9-10.1,6.8-13.8,11.6c-3.7,4.8-6.6,10.3-8.5,16.5C110,92,109,98.4,109,104.9
		c0,7.7,0.9,14.9,2.7,21.4c1.8,6.6,4.5,12.2,8.3,17.1c3.7,4.8,8.3,8.6,13.8,11.3c5.5,2.7,12,4,19.4,4c5.4,0,10.3-0.9,14.8-2.7
		c4.5-1.8,8.6-4.2,12.1-7.4c3.5-3.1,6.4-6.9,8.6-11.3c2.2-4.4,3.7-9.2,4.5-14.4h8.5c-0.9,6.8-2.8,12.9-5.6,18.3
		c-2.8,5.4-6.4,9.9-10.7,13.5c-4.3,3.6-9.2,6.4-14.7,8.4c-5.5,1.9-11.3,2.9-17.4,2.9c-9.4,0-17.4-1.7-24-5
		c-6.6-3.3-12.1-7.8-16.3-13.5c-4.2-5.7-7.4-12.2-9.4-19.5c-2-7.4-3-15.1-3-23.1s1.2-15.6,3.5-22.8c2.3-7.1,5.7-13.4,10.2-18.8
		c4.5-5.4,10-9.6,16.5-12.7c6.5-3.1,14.1-4.7,22.5-4.7c6.2,0,12.1,0.8,17.5,2.3c5.4,1.6,10.3,3.9,14.5,7c4.2,3.1,7.7,7.1,10.4,11.9
		c2.7,4.8,4.3,10.5,4.9,16.9H192.1z"/>
	<path class="st0" d="M213.9,27V4h8.5v23H213.9z M213.9,163.4V48.7h8.5v114.7H213.9z"/>
	<path class="st0" d="M250.1,75h0.7c0.9-2.8,2.4-6,4.5-9.4c2.1-3.4,4.8-6.6,8.3-9.5c3.4-2.9,7.6-5.3,12.4-7.3
		c4.8-1.9,10.4-2.9,16.6-2.9c8.8,0,16.4,1.6,22.9,4.9c6.5,3.3,11.8,7.7,16.1,13.2c4.2,5.5,7.4,11.9,9.5,19.2c2.1,7.3,3.1,15,3.1,23
		c0,8.8-1,16.8-3.1,24.1c-2.1,7.3-5.3,13.6-9.5,18.9c-4.3,5.3-9.6,9.4-16.1,12.4c-6.5,3-14.1,4.5-22.9,4.5c-9.6,0-18.1-2.1-25.5-6.2
		c-7.5-4.2-12.9-10.9-16.3-20.3h-0.4l0,65h-8.3V48.7h8.3V75z M292.4,158.7c7.5,0,13.9-1.4,19.4-4.2c5.4-2.8,9.9-6.6,13.4-11.4
		c3.5-4.8,6.1-10.3,7.8-16.6c1.7-6.3,2.6-13.1,2.6-20.2c0-6.5-0.8-13-2.5-19.3c-1.6-6.3-4.2-12-7.6-17c-3.4-5-7.9-9-13.3-12.1
		c-5.4-3-12-4.6-19.8-4.6c-7.6,0-14.1,1.5-19.5,4.5c-5.4,3-9.7,6.9-13.1,11.8c-3.4,4.9-5.8,10.5-7.3,16.9
		c-1.5,6.3-2.2,12.9-2.2,19.8c0,6.8,0.7,13.4,2,19.8c1.3,6.3,3.6,11.9,6.8,16.7c3.2,4.8,7.5,8.7,13,11.6
		C277.6,157.3,284.3,158.7,292.4,158.7z"/>
	<path class="st0" d="M364.6,75h0.7c0.9-2.8,2.4-6,4.5-9.4c2.1-3.4,4.8-6.6,8.3-9.5c3.4-2.9,7.6-5.3,12.4-7.3
		C395.2,47,400.8,46,407,46c8.8,0,16.4,1.6,22.9,4.9c6.5,3.3,11.8,7.7,16.1,13.2c4.2,5.5,7.4,11.9,9.5,19.2c2.1,7.3,3.1,15,3.1,23
		c0,8.8-1,16.8-3.1,24.1c-2.1,7.3-5.3,13.6-9.5,18.9c-4.3,5.3-9.6,9.4-16.1,12.4c-6.5,3-14.1,4.5-22.9,4.5c-9.6,0-18.1-2.1-25.5-6.2
		c-7.5-4.2-12.9-10.9-16.3-20.3h-0.4l0,65h-8.3V48.7h8.3V75z M406.9,158.7c7.5,0,13.9-1.4,19.4-4.2c5.4-2.8,9.9-6.6,13.4-11.4
		c3.5-4.8,6.1-10.3,7.8-16.6c1.7-6.3,2.6-13.1,2.6-20.2c0-6.5-0.8-13-2.5-19.3c-1.6-6.3-4.2-12-7.6-17c-3.4-5-7.9-9-13.3-12.1
		c-5.4-3-12-4.6-19.8-4.6c-7.6,0-14.1,1.5-19.5,4.5c-5.4,3-9.7,6.9-13.1,11.8c-3.4,4.9-5.8,10.5-7.3,16.9
		c-1.5,6.3-2.2,12.9-2.2,19.8c0,6.8,0.7,13.4,2,19.8c1.3,6.3,3.6,11.9,6.8,16.7c3.2,4.8,7.5,8.7,13,11.6
		C392.1,157.3,398.9,158.7,406.9,158.7z"/>
	<path class="st0" d="M455,48.7h10l42.6,104.7L547,48.7h9.6l-49.1,127c-2.4,5.7-4.6,10.5-6.6,14.6c-2,4.1-4.3,7.1-6.8,9
		c-3,2.4-6.5,3.8-10.6,4.4c-4.1,0.5-9.5,0.8-16.2,0.8v-7.4c6.1,0,10.9-0.5,14.3-1.5c3.4-1,6.6-2.9,9.6-5.9c1.6-1.6,3.3-4.7,5.1-9
		c1.8-4.4,4-10.4,6.7-18L455,48.7z"/>
	<path class="st0" d="M613.1,68.8c-5.1,0-9.3,1.2-12.7,3.5c-3.4,2.3-6.2,5.3-8.4,8.9c-2.2,3.6-3.7,7.7-4.6,12.1
		c-0.9,4.4-1.3,8.7-1.3,13.1c0,4.2,0.4,8.4,1.3,12.7c0.9,4.3,2.3,8.2,4.4,11.7c2,3.5,4.7,6.4,8.1,8.6c3.4,2.2,7.6,3.3,12.5,3.3
		c7.6,0,13.4-2.1,17.5-6.4c4.1-4.2,6.7-9.9,7.7-17.1h30.6c-2.1,15.3-8,27-17.9,35s-22.4,12.1-37.7,12.1c-8.6,0-16.6-1.5-23.8-4.4
		c-7.2-2.9-13.4-7-18.4-12.2c-5.1-5.2-9-11.4-11.8-18.6c-2.8-7.2-4.2-15.1-4.2-23.8c0-8.9,1.3-17.2,3.9-24.9
		c2.6-7.7,6.4-14.3,11.5-19.9c5.1-5.6,11.2-9.9,18.5-13.1c7.3-3.1,15.6-4.7,25-4.7c6.8,0,13.4,0.9,19.8,2.7c6.3,1.8,12,4.5,17,8.1
		c5,3.6,9,8.2,12.2,13.6c3.1,5.4,4.9,11.9,5.4,19.3h-31C634.4,75.4,626.6,68.8,613.1,68.8z"/>
	<path class="st0" d="M710.4,48v21.4h0.4c1.5-3.6,3.5-6.9,6-9.9c2.5-3,5.4-5.7,8.7-7.8c3.3-2.2,6.8-3.8,10.5-5
		c3.7-1.2,7.6-1.8,11.6-1.8c2.1,0,4.4,0.4,6.9,1.1v29.5c-1.5-0.3-3.3-0.6-5.4-0.8c-2.1-0.2-4.1-0.3-6-0.3c-5.8,0-10.7,1-14.7,2.9
		c-4,1.9-7.3,4.6-9.7,7.9c-2.5,3.3-4.2,7.3-5.2,11.7c-1,4.5-1.6,9.3-1.6,14.5v52h-31.7V48H710.4z"/>
	<path class="st0" d="M792.1,48v15.6h0.4c4.2-6,9.2-10.6,15.1-13.8c5.9-3.3,12.6-4.9,20.2-4.9c7.3,0,14,1.4,20,4.2
		c6,2.8,10.6,7.8,13.7,15c3.4-5.1,8.1-9.5,14-13.4c5.9-3.9,12.8-5.8,20.9-5.8c6.1,0,11.8,0.7,17,2.2c5.2,1.5,9.7,3.9,13.4,7.1
		c3.7,3.3,6.6,7.6,8.7,12.8c2.1,5.3,3.1,11.6,3.1,19.1v77.2h-31.7V98c0-3.9-0.2-7.5-0.4-10.9c-0.3-3.4-1.1-6.4-2.5-8.9
		c-1.3-2.5-3.3-4.5-5.9-6c-2.6-1.5-6.1-2.2-10.6-2.2s-8.1,0.9-10.8,2.6c-2.8,1.7-4.9,3.9-6.5,6.7c-1.6,2.8-2.6,5.9-3.1,9.4
		c-0.5,3.5-0.8,7-0.8,10.6v64.3h-31.7V98.7c0-3.4-0.1-6.8-0.2-10.2c-0.1-3.3-0.8-6.4-1.9-9.3c-1.1-2.8-3-5.1-5.6-6.8
		c-2.6-1.7-6.4-2.6-11.5-2.6c-1.5,0-3.5,0.3-5.9,1c-2.5,0.7-4.8,1.9-7.1,3.8c-2.3,1.9-4.3,4.5-5.9,8c-1.6,3.5-2.5,8.1-2.5,13.7v67
		h-31.7V48H792.1z"/>
</g>
</svg>
